<?xml version="1.0" encoding="utf-8"?>
<svg width="700pt" height="700pt" version="1.1" viewBox="0 0 700 700" xmlns="http://www.w3.org/2000/svg" xmlns:xlink="http://www.w3.org/1999/xlink">
  <defs>
    <symbol id="v" overflow="visible">
      <path d="m23.453-1.4062c-1.2109 0.625-2.4688 1.1016-3.7812 1.4219s-2.6836 0.48438-4.1094 0.48438c-4.25 0-7.6172-1.1875-10.094-3.5625-2.4805-2.375-3.7188-5.5977-3.7188-9.6719 0-4.0703 1.2383-7.2969 3.7188-9.6719 2.4766-2.3828 5.8438-3.5781 10.094-3.5781 1.4258 0 2.7969 0.16406 4.1094 0.48438 1.3125 0.32422 2.5703 0.79688 3.7812 1.4219v5.2812c-1.2188-0.83203-2.4219-1.4414-3.6094-1.8281-1.1875-0.38281-2.4375-0.57812-3.75-0.57812-2.3438 0-4.1875 0.75-5.5312 2.25s-2.0156 3.5742-2.0156 6.2188c0 2.6367 0.67188 4.7109 2.0156 6.2188 1.3438 1.5 3.1875 2.25 5.5312 2.25 1.3125 0 2.5625-0.19141 3.75-0.57812 1.1875-0.39453 2.3906-1.0078 3.6094-1.8438z"/>
    </symbol>
    <symbol id="b" overflow="visible"/>
    <symbol id="a" overflow="visible">
      <path d="m22.047-9.625v1.75h-14.312c0.15625 1.4375 0.67578 2.5156 1.5625 3.2344 0.88281 0.71094 2.125 1.0625 3.7188 1.0625 1.2891 0 2.6094-0.1875 3.9531-0.5625 1.3516-0.38281 2.7422-0.96094 4.1719-1.7344v4.7188c-1.4492 0.54297-2.8984 0.95312-4.3438 1.2344-1.4492 0.28125-2.8984 0.42188-4.3438 0.42188-3.4609 0-6.1523-0.87891-8.0781-2.6406-1.918-1.7578-2.875-4.2266-2.875-7.4062 0-3.125 0.94141-5.582 2.8281-7.375 1.8828-1.7891 4.4766-2.6875 7.7812-2.6875 3.0078 0 5.4141 0.90625 7.2188 2.7188 1.8125 1.8125 2.7188 4.2344 2.7188 7.2656zm-6.2969-2.0312c0-1.1641-0.33984-2.1016-1.0156-2.8125-0.67969-0.70703-1.5625-1.0625-2.6562-1.0625-1.1797 0-2.1406 0.33594-2.8906 1-0.74219 0.66797-1.1992 1.625-1.375 2.875z"/>
    </symbol>
    <symbol id="e" overflow="visible">
      <path d="m11.516-8.6094c-1.2734 0-2.2305 0.21875-2.875 0.65625-0.64844 0.42969-0.96875 1.0625-0.96875 1.9062 0 0.77344 0.25781 1.375 0.78125 1.8125 0.51953 0.4375 1.2383 0.65625 2.1562 0.65625 1.1562 0 2.125-0.41016 2.9062-1.2344 0.78906-0.82031 1.1875-1.8516 1.1875-3.0938v-0.70312zm9.3438-2.3125v10.922h-6.1562v-2.8438c-0.82422 1.168-1.75 2.0156-2.7812 2.5469-1.0234 0.53125-2.2656 0.79688-3.7344 0.79688-1.9805 0-3.5898-0.57812-4.8281-1.7344-1.2422-1.1562-1.8594-2.6602-1.8594-4.5156 0-2.2383 0.76953-3.8789 2.3125-4.9219 1.5508-1.0508 3.9766-1.5781 7.2812-1.5781h3.6094v-0.48438c0-0.96875-0.38672-1.6758-1.1562-2.125-0.76172-0.44531-1.9492-0.67188-3.5625-0.67188-1.3125 0-2.5391 0.13281-3.6719 0.39062-1.125 0.26172-2.1719 0.65234-3.1406 1.1719v-4.6562c1.3125-0.32031 2.6289-0.56641 3.9531-0.73438 1.3203-0.16406 2.6445-0.25 3.9688-0.25 3.4453 0 5.9375 0.68359 7.4688 2.0469 1.5312 1.3672 2.2969 3.5781 2.2969 6.6406z"/>
    </symbol>
    <symbol id="d" overflow="visible">
      <path d="m9.625-24.578v5.4375h6.2969v4.375h-6.2969v8.125c0 0.88672 0.17578 1.4844 0.53125 1.7969 0.35156 0.3125 1.0508 0.46875 2.0938 0.46875h3.1406v4.375h-5.2344c-2.418 0-4.1328-0.50391-5.1406-1.5156-1.0117-1.0078-1.5156-2.7188-1.5156-5.125v-8.125h-3.0312v-4.375h3.0312v-5.4375z"/>
    </symbol>
    <symbol id="k" overflow="visible">
      <path d="m15.969-16.344v-10.25h6.1406v26.594h-6.1406v-2.7656c-0.84375 1.125-1.7773 1.9531-2.7969 2.4844-1.0117 0.51953-2.1836 0.78125-3.5156 0.78125-2.3555 0-4.293-0.9375-5.8125-2.8125-1.5117-1.875-2.2656-4.2852-2.2656-7.2344 0-2.957 0.75391-5.375 2.2656-7.25 1.5195-1.875 3.457-2.8125 5.8125-2.8125 1.3203 0 2.4922 0.26562 3.5156 0.79688 1.0195 0.53125 1.9531 1.3555 2.7969 2.4688zm-4.0469 12.391c1.3125 0 2.3125-0.47266 3-1.4219 0.69531-0.95703 1.0469-2.3477 1.0469-4.1719 0-1.8203-0.35156-3.2109-1.0469-4.1719-0.6875-0.95703-1.6875-1.4375-3-1.4375-1.293 0-2.2891 0.48047-2.9844 1.4375-0.6875 0.96094-1.0312 2.3516-1.0312 4.1719 0 1.8242 0.34375 3.2148 1.0312 4.1719 0.69531 0.94922 1.6914 1.4219 2.9844 1.4219z"/>
    </symbol>
    <symbol id="f" overflow="visible">
      <path d="m13.125-3.9531c1.3125 0 2.3125-0.47266 3-1.4219 0.6875-0.95703 1.0312-2.3477 1.0312-4.1719 0-1.8203-0.34375-3.2109-1.0312-4.1719-0.6875-0.95703-1.6875-1.4375-3-1.4375s-2.3203 0.48438-3.0156 1.4531c-0.69922 0.96094-1.0469 2.3438-1.0469 4.1562 0 1.8047 0.34766 3.1875 1.0469 4.1562 0.69531 0.96094 1.7031 1.4375 3.0156 1.4375zm-4.0625-12.391c0.84375-1.1133 1.7734-1.9375 2.7969-2.4688 1.0312-0.53125 2.207-0.79688 3.5312-0.79688 2.3633 0 4.3008 0.9375 5.8125 2.8125 1.5195 1.875 2.2812 4.293 2.2812 7.25 0 2.9492-0.76172 5.3594-2.2812 7.2344-1.5117 1.875-3.4492 2.8125-5.8125 2.8125-1.3242 0-2.5-0.26562-3.5312-0.79688-1.0234-0.53125-1.9531-1.3516-2.7969-2.4688v2.7656h-6.125v-26.594h6.125z"/>
    </symbol>
    <symbol id="j" overflow="visible">
      <path d="m0.42188-19.141h6.125l5.1406 12.984 4.375-12.984h6.125l-8.0469 20.953c-0.8125 2.125-1.7617 3.6094-2.8438 4.4531-1.0742 0.85156-2.4922 1.2812-4.25 1.2812h-3.5469v-4.0156h1.9219c1.0312 0 1.7812-0.16797 2.25-0.5 0.47656-0.32422 0.84766-0.91406 1.1094-1.7656l0.17188-0.53125z"/>
    </symbol>
    <symbol id="i" overflow="visible">
      <path d="m0.17188-25.516h6.6094l6.7656 18.828 6.75-18.828h6.625l-9.4531 25.516h-7.8438z"/>
    </symbol>
    <symbol id="u" overflow="visible">
      <path d="m3.2188-25.516h6.5781v20.547h11.547v4.9688h-18.125z"/>
    </symbol>
    <symbol id="h" overflow="visible">
      <path d="m2.7344-7.4531v-11.688h6.1562v1.9062c0 1.043-0.007813 2.3516-0.015625 3.9219-0.011719 1.5625-0.015625 2.6055-0.015625 3.125 0 1.543 0.035156 2.6523 0.10938 3.3281 0.082031 0.67969 0.21875 1.168 0.40625 1.4688 0.25781 0.40625 0.58594 0.71875 0.98438 0.9375 0.40625 0.21094 0.875 0.3125 1.4062 0.3125 1.2695 0 2.2695-0.48828 3-1.4688 0.72656-0.97656 1.0938-2.3359 1.0938-4.0781v-9.4531h6.125v19.141h-6.125v-2.7656c-0.92969 1.1172-1.9062 1.9375-2.9375 2.4688s-2.168 0.79688-3.4062 0.79688c-2.2109 0-3.8906-0.67578-5.0469-2.0312-1.1562-1.3633-1.7344-3.3359-1.7344-5.9219z"/>
    </symbol>
    <symbol id="t" overflow="visible">
      <path d="m2.9375-19.141h6.125v19.141h-6.125zm0-7.4531h6.125v4.9844h-6.125z"/>
    </symbol>
    <symbol id="g" overflow="visible">
      <path d="m20.672-15.969c0.78125-1.1758 1.7031-2.0781 2.7656-2.7031s2.2344-0.9375 3.5156-0.9375c2.1953 0 3.8672 0.68359 5.0156 2.0469 1.1562 1.3555 1.7344 3.3242 1.7344 5.9062v11.656h-6.1562v-9.9844c0.007813-0.14453 0.015625-0.29688 0.015625-0.45312 0.007812-0.16406 0.015625-0.39453 0.015625-0.6875 0-1.3516-0.19922-2.332-0.59375-2.9375-0.39844-0.61328-1.043-0.92188-1.9375-0.92188-1.1562 0-2.0547 0.48047-2.6875 1.4375-0.63672 0.96094-0.96484 2.3398-0.98438 4.1406v9.4062h-6.1406v-9.9844c0-2.1133-0.18359-3.4727-0.54688-4.0781-0.36719-0.61328-1.0156-0.92188-1.9531-0.92188-1.1797 0-2.0859 0.48438-2.7188 1.4531-0.63672 0.96094-0.95312 2.3281-0.95312 4.1094v9.4219h-6.1562v-19.141h6.1562v2.7969c0.75-1.082 1.6094-1.8945 2.5781-2.4375 0.97656-0.55078 2.0547-0.82812 3.2344-0.82812 1.3125 0 2.4727 0.32422 3.4844 0.96875 1.0195 0.63672 1.7891 1.5273 2.3125 2.6719z"/>
    </symbol>
    <symbol id="c" overflow="visible">
      <path d="m12.047-15.234c-1.3555 0-2.3906 0.49219-3.1094 1.4688-0.71094 0.96875-1.0625 2.375-1.0625 4.2188 0 1.8359 0.35156 3.2422 1.0625 4.2188 0.71875 0.96875 1.7539 1.4531 3.1094 1.4531 1.332 0 2.3516-0.48438 3.0625-1.4531 0.70703-0.97656 1.0625-2.3828 1.0625-4.2188 0-1.8438-0.35547-3.25-1.0625-4.2188-0.71094-0.97656-1.7305-1.4688-3.0625-1.4688zm0-4.375c3.2891 0 5.8633 0.89062 7.7188 2.6719 1.8516 1.7812 2.7812 4.2461 2.7812 7.3906 0 3.1367-0.92969 5.5938-2.7812 7.375-1.8555 1.7812-4.4297 2.6719-7.7188 2.6719-3.3047 0-5.8867-0.89062-7.75-2.6719-1.8672-1.7812-2.7969-4.2383-2.7969-7.375 0-3.1445 0.92969-5.6094 2.7969-7.3906 1.8633-1.7812 4.4453-2.6719 7.75-2.6719z"/>
    </symbol>
    <symbol id="s" overflow="visible">
      <path d="m0.53125-19.141h6.1094l4.7812 13.234 4.75-13.234h6.125l-7.5312 19.141h-6.7188z"/>
    </symbol>
    <symbol id="r" overflow="visible">
      <path d="m15.531-26.594v4.0156h-3.375c-0.86719 0-1.4688 0.15625-1.8125 0.46875s-0.51562 0.85938-0.51562 1.6406v1.3281h5.2344v4.375h-5.2344v14.766h-6.125v-14.766h-3.0312v-4.375h3.0312v-1.3281c0-2.082 0.57812-3.625 1.7344-4.625 1.1641-1 2.9727-1.5 5.4219-1.5z"/>
    </symbol>
    <symbol id="q" overflow="visible">
      <path d="m22.188-11.656v11.656h-6.1562v-8.8906c0-1.6758-0.039062-2.8281-0.10938-3.4531-0.074219-0.625-0.20312-1.082-0.39062-1.375-0.24219-0.40625-0.5625-0.71875-0.96875-0.9375s-0.875-0.32812-1.4062-0.32812c-1.2734 0-2.2734 0.49609-3 1.4844-0.73047 0.98047-1.0938 2.3398-1.0938 4.0781v9.4219h-6.125v-26.594h6.125v10.25c0.91406-1.1133 1.8906-1.9375 2.9219-2.4688 1.0391-0.53125 2.1914-0.79688 3.4531-0.79688 2.207 0 3.8828 0.68359 5.0312 2.0469 1.1445 1.3555 1.7188 3.3242 1.7188 5.9062z"/>
    </symbol>
    <symbol id="p" overflow="visible">
      <path d="m3.2188-25.516h7.3438l9.2812 17.5v-17.5h6.2344v25.516h-7.3438l-9.2812-17.5v17.5h-6.2344z"/>
    </symbol>
    <symbol id="o" overflow="visible">
      <path d="m22.188-11.656v11.656h-6.1562v-8.9219c0-1.6562-0.039062-2.7969-0.10938-3.4219-0.074219-0.625-0.20312-1.082-0.39062-1.375-0.24219-0.40625-0.5625-0.71875-0.96875-0.9375s-0.875-0.32812-1.4062-0.32812c-1.2734 0-2.2734 0.49609-3 1.4844-0.73047 0.98047-1.0938 2.3398-1.0938 4.0781v9.4219h-6.125v-19.141h6.125v2.7969c0.91406-1.1133 1.8906-1.9375 2.9219-2.4688 1.0391-0.53125 2.1914-0.79688 3.4531-0.79688 2.207 0 3.8828 0.68359 5.0312 2.0469 1.1445 1.3555 1.7188 3.3242 1.7188 5.9062z"/>
    </symbol>
    <symbol id="n" overflow="visible">
      <path d="m3.2188-25.516h10.922c3.2383 0 5.7266 0.72656 7.4688 2.1719 1.7383 1.4375 2.6094 3.4922 2.6094 6.1562 0 2.6797-0.87109 4.7344-2.6094 6.1719-1.7422 1.4375-4.2305 2.1562-7.4688 2.1562h-4.3438v8.8594h-6.5781zm6.5781 4.7656v7.125h3.6406c1.2695 0 2.2539-0.30469 2.9531-0.92188 0.69531-0.625 1.0469-1.5039 1.0469-2.6406 0-1.1445-0.35156-2.0234-1.0469-2.6406-0.69922-0.61328-1.6836-0.92188-2.9531-0.92188z"/>
    </symbol>
    <symbol id="m" overflow="visible">
      <path d="m2.9375-19.141h6.125v18.797c0 2.5625-0.62109 4.5156-1.8594 5.8594-1.2305 1.3516-3.0117 2.0312-5.3438 2.0312h-3.0156v-4.0156h1.0469c1.1641 0 1.9609-0.26172 2.3906-0.78125 0.4375-0.52344 0.65625-1.5547 0.65625-3.0938zm0-7.4531h6.125v4.9844h-6.125z"/>
    </symbol>
    <symbol id="l" overflow="visible">
      <path d="m18.406-18.547v5c-0.83594-0.57031-1.6719-0.99219-2.5156-1.2656-0.83594-0.28125-1.6992-0.42188-2.5938-0.42188-1.7109 0-3.043 0.5-4 1.5-0.94922 1-1.4219 2.3984-1.4219 4.1875 0 1.7812 0.47266 3.1719 1.4219 4.1719 0.95703 1 2.2891 1.5 4 1.5 0.95703 0 1.8633-0.14062 2.7188-0.42188 0.86328-0.28906 1.6602-0.71875 2.3906-1.2812v5.0156c-0.96094 0.35547-1.9336 0.61719-2.9219 0.79688-0.98047 0.17578-1.9648 0.26562-2.9531 0.26562-3.4609 0-6.1641-0.88281-8.1094-2.6562-1.9492-1.7695-2.9219-4.2344-2.9219-7.3906s0.97266-5.6172 2.9219-7.3906c1.9453-1.7812 4.6484-2.6719 8.1094-2.6719 1 0 1.9844 0.089844 2.9531 0.26562 0.97656 0.17969 1.9531 0.44531 2.9219 0.79688z"/>
    </symbol>
  </defs>
  <g transform="matrix(1, 0, 0, 1, -33.483021, -87.069923)">
    <path d="M 479.542 497.936 C 476.214 486.651 463.395 447.954 437.309 416.263 C 453.064 395.35 462.091 366.548 462.664 334.665 C 464.215 245.441 371.386 212.955 367.433 210.787 C 365.751 209.866 363.762 209.859 362.064 210.762 C 358.116 212.878 265.282 244.346 266.824 334.65 C 267.348 367.51 276.075 395.827 291.979 416.914 C 266.354 448.484 253.634 486.756 250.306 497.927 C 235.034 549.269 211.499 704.131 210.502 710.7 C 210.219 712.567 210.717 714.467 211.848 715.895 C 212.981 717.334 214.64 718.166 216.398 718.166 L 513.123 718.166 C 514.874 718.166 516.534 717.334 517.672 715.913 C 518.791 714.477 519.302 712.592 519.022 710.731 C 518.038 704.15 494.77 549.283 479.538 497.931 Z M 364.7 223.841 C 379.672 232.924 451.984 261.329 450.72 334.437 C 450.176 364.419 441.641 391.29 426.51 410.318 L 426.122 410.833 C 410.821 429.853 389.61 439.908 364.752 439.908 C 340.895 439.908 320.383 430.966 305.404 414.032 C 304.449 412.958 303.527 411.852 302.625 410.722 C 287.522 391.772 279.289 365.394 278.792 334.44 C 277.507 260.442 349.724 232.772 364.702 223.844 Z M 223.446 705.31 C 228.437 673.123 248.561 545.994 261.686 501.873 C 268.052 480.521 281.461 449.986 300.209 426.449 C 315.767 442.256 335.812 451.172 358.777 452.487 L 358.777 705.325 L 223.448 705.329 Z M 370.726 705.31 L 370.726 452.454 C 393.569 451.097 413.548 442.063 429.182 425.902 C 448.235 449.502 461.776 480.279 468.159 501.858 C 481.254 545.992 501.158 673.15 506.096 705.313 L 370.725 705.31 Z" style=""/>
    <path d="M 376.124 363.821 C 376.124 359.755 379.436 358.669 383.511 358.669 C 387.558 358.669 390.866 359.755 390.866 363.821 C 390.866 367.888 387.554 367.497 383.511 367.497 C 379.425 367.497 376.124 367.888 376.124 363.821 Z"/>
    <path d="M 341.176 362.92 C 341.176 358.853 344.489 357.767 348.548 357.767 C 352.622 357.767 355.903 358.853 355.903 362.92 C 355.903 366.986 352.614 366.595 348.548 366.595 C 344.485 366.595 341.176 366.986 341.176 362.92 Z"/>
    <path d="M 364.422 276.446 C 325.151 276.446 293.199 310.848 293.199 353.138 C 293.199 395.429 325.148 429.823 364.422 429.823 C 403.712 429.823 435.667 395.422 435.667 353.131 C 435.667 310.841 403.712 276.446 364.422 276.446 Z M 364.422 289.307 C 389.158 289.307 410.388 305.713 419.26 328.937 C 418.015 327.895 416.817 326.683 415.448 325.191 C 411.194 320.541 405.897 314.757 395.603 314.757 C 385.309 314.757 380.006 320.545 375.759 325.191 C 372.118 329.167 369.725 331.797 364.421 331.797 C 359.134 331.797 356.728 329.167 353.094 325.198 C 348.841 320.548 343.551 314.764 333.25 314.764 C 322.949 314.764 317.652 320.552 313.399 325.198 C 312.042 326.679 310.844 327.884 309.616 328.926 C 318.484 305.706 339.698 289.308 364.421 289.308 Z M 364.422 416.969 C 331.736 416.969 305.146 388.334 305.146 353.141 C 305.146 350.164 305.399 347.254 305.771 344.384 C 313.682 343.19 318.189 338.281 321.899 334.231 C 325.54 330.254 327.94 327.625 333.237 327.625 C 338.527 327.625 340.93 330.254 344.568 334.231 C 348.821 338.873 354.118 344.664 364.405 344.664 C 374.706 344.664 379.996 338.877 384.256 334.231 C 387.897 330.254 390.304 327.625 395.607 327.625 C 400.911 327.625 403.317 330.254 406.958 334.224 C 410.668 338.274 415.182 343.19 423.086 344.384 C 423.451 347.255 423.705 350.164 423.705 353.141 C 423.711 388.333 397.122 416.969 364.422 416.969 Z" style=""/>
    <path d="M 365.919 399.665 C 349.692 399.665 346.501 392.177 346.192 391.322 C 345.528 389.482 346.477 387.451 348.321 386.779 C 350.09 386.15 352.067 387.001 352.794 388.724 C 352.969 389.025 355.34 392.576 365.927 392.576 C 376.427 392.576 378.493 388.759 378.505 388.724 C 379.184 386.876 381.184 386.029 383.02 386.689 C 384.856 387.345 385.786 389.474 385.106 391.318 C 384.782 392.177 381.626 399.665 365.918 399.665 Z"/>
    <path d="M 268.65 465.95 C 266.201 465.95 263.822 464.677 262.506 462.4 L 235.361 415.388 C 233.4 412.001 234.564 407.661 237.951 405.692 C 241.337 403.739 245.677 404.907 247.63 408.29 L 274.775 455.31 C 276.736 458.697 275.572 463.037 272.186 464.998 C 271.072 465.642 269.846 465.951 268.65 465.951 Z"/>
    <path d="M 459.695 463.118 C 458.492 463.118 457.273 462.809 456.167 462.165 C 452.781 460.204 451.609 455.872 453.57 452.477 L 480.711 405.457 C 482.664 402.074 486.996 400.914 490.398 402.86 C 493.781 404.828 494.941 409.145 492.988 412.555 L 465.855 459.567 C 464.539 461.832 462.156 463.118 459.695 463.118 Z"/>
    <use transform="matrix(1, 0, 0, 1, 192.550781, 665)" xlink:href="#b"/>
    <use transform="matrix(1, 0, 0, 1, 445.75390625, 665)" xlink:href="#b"/>
    <use transform="matrix(1, 0, 0, 1, 182.09375, 700)" xlink:href="#b"/>
    <use transform="matrix(1, 0, 0, 1, 490.6328125, 700)" xlink:href="#b"/>
  </g>
</svg>