<?xml version="1.0" encoding="utf-8"?>
<svg version="1.1" x="0px" y="0px" viewBox="0 0 127.799 127.174" style="enable-background:new 0 0 128 128;" xmlns="http://www.w3.org/2000/svg">
  <path d="M128.196-428.251h-9.382c-1.104,0-2,0.896-2,2v41.476c0,1.104,0.896,2,2,2h9.382c1.104,0,2-0.896,2-2v-41.476  C130.196-427.355,129.301-428.251,128.196-428.251z M126.196-386.775h-5.382v-37.476h5.382V-386.775z"/>
  <g>
    <path d="M49.273,85.431c0-1.104-0.896-2-2-2H18.761c-1.798,0-3.261-1.468-3.261-3.271V18.885c0-1.804,1.463-3.271,3.261-3.271   H114.5c1.104,0,2-0.896,2-2s-0.896-2-2-2H18.761c-4.003,0-7.261,3.262-7.261,7.271V80.16c0,4.009,3.257,7.271,7.261,7.271h28.512   C48.377,87.431,49.273,86.536,49.273,85.431z"/>
    <ellipse cx="21.996" cy="21.942" rx="1.603" ry="1.599"/>
    <ellipse cx="28.054" cy="21.942" rx="1.603" ry="1.599"/>
    <ellipse cx="34.112" cy="21.942" rx="1.603" ry="1.599"/>
    <path d="M46.791,104.486H41.18c-1.104,0-2,0.896-2,2s0.896,2,2,2h5.611c1.104,0,2-0.896,2-2S47.895,104.486,46.791,104.486z"/>
    <path d="M114.5,28.269H24.021c-1.104,0-2,0.896-2,2s0.896,2,2,2H112.5V80.16c0,1.804-1.462,3.271-3.26,3.271H68.314   c-1.104,0-2,0.896-2,2s0.896,2,2,2h40.925c4.003,0,7.26-3.262,7.26-7.271V30.269C116.5,29.164,115.604,28.269,114.5,28.269z"/>
    <path d="M93.458,93.943H63.054c-1.798,0-3.26-1.467-3.26-3.271V79.909c5.378-0.859,9.625-5.109,10.478-10.485h12.575   c0.013,0,0.025-0.004,0.038-0.004c0.15,0.006,0.298,0.022,0.449,0.022h5.891c3.79,0,5.896-2.857,6.017-5.679   c0.084-1.953-0.826-4.004-2.699-5.116c0.201-0.823,0.259-1.651,0.272-2.384c0.07-3.899-2.697-7.26-6.424-7.981   c-0.177-2.24-1.163-4.321-2.838-5.918c-2.852-2.72-7.056-3.375-10.564-1.974c-1.944-2.9-5.33-4.74-9.009-4.74   c-3.679,0-7.065,1.84-9.009,4.74c-3.508-1.401-7.712-0.746-10.564,1.973c-1.675,1.598-2.662,3.679-2.838,5.92   c-3.659,0.696-6.428,3.814-6.428,7.547c0,0.87,0.054,1.859,0.302,2.826c-1.864,1.115-2.768,3.159-2.685,5.108   c0.121,2.822,2.227,5.679,6.017,5.679h6.544c0.86,5.368,5.103,9.609,10.475,10.467v10.763c0,4.009,3.257,7.271,7.26,7.271h30.404   c1.798,0,3.26,1.468,3.26,3.271s-1.462,3.271-3.26,3.271H57.006c-0.924-4.503-4.919-7.901-9.691-7.901H37.148   c-5.455,0-9.893,4.438-9.893,9.909c0,5.455,4.438,9.893,9.893,9.893h10.167c4.768,0,8.759-3.392,9.688-7.9h36.455   c4.003,0,7.26-3.262,7.26-7.271S97.462,93.943,93.458,93.943z M49.388,69.441h0.836c5.627,0,10.206-4.407,10.206-9.824   c0-1.104-0.896-2-2-2s-2,0.896-2,2c0,3.211-2.784,5.824-6.206,5.824H38.775c-1.886,0-2.012-1.661-2.021-1.85   c-0.021-0.484,0.1-1.614,1.613-1.766h1.063c1.104,0,2-0.896,2-2s-0.896-2-2-2h-0.072c-0.189-0.598-0.217-1.383-0.217-1.997   c0-1.725,1.283-3.167,3.005-3.571c0.484,1.257,1.242,2.411,2.261,3.384c0.387,0.37,0.884,0.553,1.38,0.553   c0.528,0,1.055-0.208,1.448-0.62c0.762-0.799,0.732-2.065-0.067-2.828c-1.055-1.006-1.636-2.336-1.636-3.745   s0.581-2.739,1.636-3.745c2.241-2.138,5.889-2.138,8.13,0c0.8,0.764,2.066,0.732,2.828-0.067c0.677-0.71,0.726-1.787,0.168-2.554   c1.208-1.821,3.342-2.988,5.686-2.988c2.33,0,4.453,1.154,5.665,2.958l-0.938,0.894c-0.8,0.762-0.83,2.028-0.068,2.828   c0.762,0.8,2.028,0.831,2.828,0.068l1.195-1.139c2.241-2.138,5.889-2.138,8.13,0c1.055,1.006,1.636,2.336,1.636,3.745   s-0.581,2.739-1.636,3.745c-0.799,0.762-0.829,2.028-0.067,2.828c0.393,0.412,0.92,0.62,1.448,0.62c0.496,0,0.993-0.184,1.38-0.553   c1.019-0.972,1.776-2.126,2.26-3.382c1.753,0.43,3.037,2.048,3.003,3.93c-0.009,0.5-0.042,1.132-0.188,1.635H88.57   c-1.104,0-2,0.896-2,2s0.896,2,2,2h1.063c1.512,0.152,1.633,1.282,1.613,1.766c-0.008,0.189-0.134,1.85-2.021,1.85h-5.891   c-3.422,0-6.206-2.613-6.206-5.824c0-1.104-0.896-2-2-2s-2,0.896-2,2c0,2.173,0.746,4.177,1.992,5.806h-9.926c-1.104,0-2,0.896-2,2   s0.896,2,2,2h1.01c-0.9,3.811-4.325,6.659-8.411,6.659C53.715,76.082,50.295,73.243,49.388,69.441z M47.315,112.386H37.148   c-3.249,0-5.893-2.644-5.893-5.909c0-3.249,2.644-5.893,5.893-5.893h10.167c3.249,0,5.893,2.644,5.893,5.909   C53.208,109.742,50.564,112.386,47.315,112.386z"/>
  </g>
</svg>