<?xml version="1.0" encoding="utf-8"?>
<svg width="700pt" height="700pt" version="1.1" viewBox="0 0 700 700" xmlns="http://www.w3.org/2000/svg">
  <defs>
    <symbol id="m" overflow="visible">
      <path d="m29.312-1.75c-1.5117 0.78125-3.0898 1.3711-4.7344 1.7656-1.6367 0.40625-3.3398 0.60938-5.1094 0.60938-5.3125 0-9.5273-1.4844-12.641-4.4531-3.1055-2.9688-4.6562-7-4.6562-12.094s1.5508-9.125 4.6562-12.094c3.1133-2.9688 7.3281-4.4531 12.641-4.4531 1.7695 0 3.4727 0.19922 5.1094 0.59375 1.6445 0.39844 3.2227 0.99219 4.7344 1.7812v6.5938c-1.5312-1.0391-3.0391-1.8008-4.5156-2.2812-1.4805-0.48828-3.0391-0.73438-4.6719-0.73438-2.9375 0-5.2461 0.94531-6.9219 2.8281-1.6797 1.875-2.5156 4.4648-2.5156 7.7656 0 3.293 0.83594 5.8828 2.5156 7.7656 1.6758 1.875 3.9844 2.8125 6.9219 2.8125 1.6328 0 3.1914-0.23828 4.6719-0.71875 1.4766-0.48828 2.9844-1.2539 4.5156-2.2969z"/>
    </symbol>
    <symbol id="h" overflow="visible">
      <path d="m21.453-17.406c-0.67969-0.3125-1.3516-0.53906-2.0156-0.6875-0.65625-0.15625-1.3203-0.23438-1.9844-0.23438-1.9688 0-3.4844 0.63281-4.5469 1.8906-1.0547 1.2617-1.5781 3.0703-1.5781 5.4219v11.016h-7.6562v-23.922h7.6562v3.9219c0.97656-1.5625 2.1016-2.7031 3.375-3.4219 1.2812-0.71875 2.8125-1.0781 4.5938-1.0781 0.25 0 0.52344 0.011719 0.82812 0.03125 0.30078 0.023438 0.73438 0.070312 1.2969 0.14062z"/>
    </symbol>
    <symbol id="c" overflow="visible">
      <path d="m27.562-12.031v2.1875h-17.891c0.1875 1.793 0.83203 3.1367 1.9375 4.0312 1.1133 0.89844 2.6719 1.3438 4.6719 1.3438 1.6016 0 3.25-0.23438 4.9375-0.70312 1.6875-0.47656 3.4219-1.2031 5.2031-2.1719v5.8906c-1.8047 0.6875-3.6094 1.2031-5.4219 1.5469-1.8125 0.35156-3.6211 0.53125-5.4219 0.53125-4.3359 0-7.7031-1.0977-10.109-3.2969-2.3984-2.207-3.5938-5.2969-3.5938-9.2656 0-3.9062 1.1758-6.9727 3.5312-9.2031 2.3633-2.2383 5.6094-3.3594 9.7344-3.3594 3.7578 0 6.7695 1.1367 9.0312 3.4062 2.2578 2.2617 3.3906 5.2812 3.3906 9.0625zm-7.8594-2.5312c0-1.457-0.42969-2.6289-1.2812-3.5156-0.84375-0.89453-1.9492-1.3438-3.3125-1.3438-1.4922 0-2.6992 0.41797-3.625 1.25-0.91797 0.83594-1.4922 2.0391-1.7188 3.6094z"/>
    </symbol>
    <symbol id="b" overflow="visible">
      <path d="m14.391-10.766c-1.5938 0-2.793 0.27344-3.5938 0.8125-0.80469 0.54297-1.2031 1.3398-1.2031 2.3906 0 0.96875 0.32031 1.7305 0.96875 2.2812 0.64453 0.54297 1.5469 0.8125 2.7031 0.8125 1.4375 0 2.6445-0.51562 3.625-1.5469 0.98828-1.0312 1.4844-2.3203 1.4844-3.875v-0.875zm11.688-2.8906v13.656h-7.7031v-3.5469c-1.0312 1.4492-2.1875 2.5078-3.4688 3.1719s-2.8398 1-4.6719 1c-2.4805 0-4.4961-0.72266-6.0469-2.1719-1.543-1.4453-2.3125-3.3203-2.3125-5.625 0-2.8125 0.96094-4.8672 2.8906-6.1719 1.9375-1.3125 4.9688-1.9688 9.0938-1.9688h4.5156v-0.60938c0-1.207-0.48047-2.0938-1.4375-2.6562-0.94922-0.5625-2.4375-0.84375-4.4688-0.84375-1.6367 0-3.1562 0.16797-4.5625 0.5-1.4062 0.32422-2.7188 0.8125-3.9375 1.4688v-5.8281c1.6445-0.40625 3.2891-0.70703 4.9375-0.90625 1.6562-0.20703 3.3047-0.3125 4.9531-0.3125 4.3203 0 7.4375 0.85547 9.3438 2.5625 1.9141 1.6992 2.875 4.4609 2.875 8.2812z"/>
    </symbol>
    <symbol id="g" overflow="visible">
      <path d="m12.031-30.719v6.7969h7.875v5.4688h-7.875v10.141c0 1.1172 0.21875 1.8711 0.65625 2.2656 0.4375 0.38672 1.3125 0.57812 2.625 0.57812h3.9375v5.4688h-6.5625c-3.0234 0-5.1641-0.62891-6.4219-1.8906-1.2617-1.2578-1.8906-3.3984-1.8906-6.4219v-10.141h-3.7969v-5.4688h3.7969v-6.7969z"/>
    </symbol>
    <symbol id="f" overflow="visible">
      <path d="m19.953-20.422v-12.812h7.6875v33.234h-7.6875v-3.4531c-1.0547 1.4062-2.2148 2.4375-3.4844 3.0938-1.2734 0.65625-2.7422 0.98438-4.4062 0.98438-2.9492 0-5.3711-1.1719-7.2656-3.5156-1.8867-2.3438-2.8281-5.3594-2.8281-9.0469s0.94141-6.7031 2.8281-9.0469c1.8945-2.3438 4.3164-3.5156 7.2656-3.5156 1.6562 0 3.1172 0.33594 4.3906 1 1.2812 0.65625 2.4453 1.6836 3.5 3.0781zm-5.0469 15.484c1.6445 0 2.8945-0.59766 3.75-1.7969 0.86328-1.1953 1.2969-2.9297 1.2969-5.2031 0-2.2812-0.43359-4.0195-1.2969-5.2188-0.85547-1.1953-2.1055-1.7969-3.75-1.7969-1.625 0-2.8711 0.60156-3.7344 1.7969-0.85547 1.1992-1.2812 2.9375-1.2812 5.2188 0 2.2734 0.42578 4.0078 1.2812 5.2031 0.86328 1.1992 2.1094 1.7969 3.7344 1.7969z"/>
    </symbol>
    <symbol id="e" overflow="visible">
      <path d="m16.406-4.9375c1.6328 0 2.8828-0.59766 3.75-1.7969 0.86328-1.1953 1.2969-2.9297 1.2969-5.2031 0-2.2812-0.43359-4.0195-1.2969-5.2188-0.86719-1.1953-2.1172-1.7969-3.75-1.7969-1.6367 0-2.8906 0.60547-3.7656 1.8125-0.875 1.1992-1.3125 2.9336-1.3125 5.2031 0 2.2617 0.4375 3.9961 1.3125 5.2031 0.875 1.1992 2.1289 1.7969 3.7656 1.7969zm-5.0781-15.484c1.0508-1.3945 2.2188-2.4219 3.5-3.0781 1.2812-0.66406 2.7539-1 4.4219-1 2.9453 0 5.3672 1.1719 7.2656 3.5156 1.8945 2.3438 2.8438 5.3594 2.8438 9.0469s-0.94922 6.7031-2.8438 9.0469c-1.8984 2.3438-4.3203 3.5156-7.2656 3.5156-1.668 0-3.1406-0.33594-4.4219-1s-2.4492-1.6914-3.5-3.0781v3.4531h-7.6562v-33.234h7.6562z"/>
    </symbol>
    <symbol id="a" overflow="visible">
      <path d="m0.53125-23.922h7.6562l6.4219 16.234 5.4688-16.234h7.6562l-10.062 26.188c-1.0117 2.6641-2.1953 4.5234-3.5469 5.5781-1.3438 1.0625-3.1211 1.5938-5.3281 1.5938h-4.4219v-5.0156h2.3906c1.3008 0 2.2422-0.21094 2.8281-0.625 0.59375-0.40625 1.0547-1.1484 1.3906-2.2188l0.20312-0.65625z"/>
    </symbol>
    <symbol id="d" overflow="visible">
      <path d="m4.0156-31.891h22.203v6.2188h-13.984v5.9375h13.141v6.2188h-13.141v7.2969h14.453v6.2188h-22.672z"/>
    </symbol>
    <symbol id="l" overflow="visible">
      <path d="m3.4219-9.3125v-14.609h7.6875v2.3906c0 1.293-0.011719 2.918-0.03125 4.875-0.011719 1.9609-0.015625 3.2656-0.015625 3.9219 0 1.9297 0.046875 3.3125 0.14062 4.1562 0.10156 0.84375 0.28125 1.4609 0.53125 1.8438 0.3125 0.5 0.71875 0.88672 1.2188 1.1562 0.50781 0.27344 1.0938 0.40625 1.75 0.40625 1.5938 0 2.8438-0.60938 3.75-1.8281 0.91406-1.2266 1.375-2.9297 1.375-5.1094v-11.812h7.6406v23.922h-7.6406v-3.4531c-1.1562 1.3867-2.3828 2.4141-3.6719 3.0781-1.2812 0.66406-2.6992 1-4.25 1-2.7734 0-4.8828-0.84766-6.3281-2.5469-1.4375-1.6953-2.1562-4.1602-2.1562-7.3906z"/>
    </symbol>
    <symbol id="k" overflow="visible">
      <path d="m23-23.172v6.2344c-1.0312-0.71875-2.0742-1.2422-3.125-1.5781-1.043-0.34375-2.125-0.51562-3.25-0.51562-2.1367 0-3.8047 0.625-5 1.875-1.1875 1.2422-1.7812 2.9805-1.7812 5.2188 0 2.2305 0.59375 3.9688 1.7812 5.2188 1.1953 1.25 2.8633 1.875 5 1.875 1.1953 0 2.332-0.17578 3.4062-0.53125 1.0703-0.36328 2.0625-0.89453 2.9688-1.5938v6.2656c-1.1875 0.4375-2.4023 0.76562-3.6406 0.98438-1.2305 0.22656-2.4648 0.34375-3.7031 0.34375-4.3125 0-7.6875-1.1094-10.125-3.3281s-3.6562-5.2969-3.6562-9.2344c0-3.9453 1.2188-7.0234 3.6562-9.2344 2.4375-2.2188 5.8125-3.3281 10.125-3.3281 1.25 0 2.4844 0.10938 3.7031 0.32812s2.4297 0.55469 3.6406 1z"/>
    </symbol>
    <symbol id="j" overflow="visible">
      <path d="m3.6719-33.234h7.6562v33.234h-7.6562z"/>
    </symbol>
    <symbol id="i" overflow="visible">
      <path d="m11.328-3.4531v12.547h-7.6562v-33.016h7.6562v3.5c1.0508-1.3945 2.2188-2.4219 3.5-3.0781 1.2812-0.66406 2.7539-1 4.4219-1 2.9453 0 5.3672 1.1719 7.2656 3.5156 1.8945 2.3438 2.8438 5.3594 2.8438 9.0469s-0.94922 6.7031-2.8438 9.0469c-1.8984 2.3438-4.3203 3.5156-7.2656 3.5156-1.668 0-3.1406-0.33594-4.4219-1s-2.4492-1.6914-3.5-3.0781zm5.0781-15.5c-1.6367 0-2.8906 0.60547-3.7656 1.8125-0.875 1.1992-1.3125 2.9336-1.3125 5.2031 0 2.2617 0.4375 3.9961 1.3125 5.2031 0.875 1.1992 2.1289 1.7969 3.7656 1.7969 1.6328 0 2.8828-0.59766 3.75-1.7969 0.86328-1.1953 1.2969-2.9297 1.2969-5.2031 0-2.2812-0.43359-4.0195-1.2969-5.2188-0.86719-1.1953-2.1172-1.7969-3.75-1.7969z"/>
    </symbol>
  </defs>
  <g transform="matrix(1, 0, 0, 1, 52.005375, -19.092611)">
    <path d="M 330.343 552.753 L 50.343 552.753 L 50.343 167.753 L 330.343 167.753 L 330.343 219.73 L 347.843 219.73 L 347.843 141.503 C 347.843 117.378 328.218 97.753 304.093 97.753 L 76.593 97.753 C 52.468 97.753 32.843 117.378 32.843 141.503 L 32.843 596.503 C 32.843 620.628 52.468 640.253 76.593 640.253 L 304.093 640.253 C 328.218 640.253 347.843 620.628 347.843 596.503 L 347.843 439.003 L 330.343 439.003 Z M 76.593 115.253 L 304.093 115.253 C 318.566 115.253 330.343 127.03 330.343 141.503 L 330.343 150.253 L 50.343 150.253 L 50.343 141.503 C 50.343 127.03 62.12 115.253 76.593 115.253 Z M 304.093 622.753 L 76.593 622.753 C 62.12 622.753 50.343 610.976 50.343 596.503 L 50.343 570.253 L 330.343 570.253 L 330.343 596.503 C 330.343 610.976 318.566 622.753 304.093 622.753 Z"/>
    <path d="M 164.093 587.753 L 216.593 587.753 L 216.593 605.253 L 164.093 605.253 Z"/>
    <path d="M 479.093 220.253 C 474.265 220.253 470.343 216.331 470.343 211.503 L 452.843 211.503 C 452.843 222.894 460.183 232.519 470.343 236.144 L 470.343 255.253 L 487.843 255.253 L 487.843 236.144 C 498.003 232.523 505.343 222.898 505.343 211.503 C 505.343 197.03 493.566 185.253 479.093 185.253 C 474.265 185.253 470.343 181.331 470.343 176.503 C 470.343 171.675 474.265 167.753 479.093 167.753 C 483.921 167.753 487.843 171.675 487.843 176.503 L 505.343 176.503 C 505.343 165.112 498.003 155.487 487.843 151.862 L 487.843 132.753 L 470.343 132.753 L 470.343 151.862 C 460.183 155.487 452.843 165.112 452.843 176.503 C 452.843 190.976 464.62 202.753 479.093 202.753 C 483.921 202.753 487.843 206.675 487.843 211.503 C 487.843 216.331 483.921 220.253 479.093 220.253 Z"/>
    <path d="M 479.093 360.253 C 442.429 360.253 410.511 380.866 394.261 411.108 L 303.339 372.643 C 309.57 357.854 312.843 341.827 312.843 325.252 C 312.843 308.818 309.421 292.772 303.191 277.924 L 394.261 239.397 C 410.511 269.639 442.429 290.252 479.093 290.252 C 532.163 290.252 575.343 247.072 575.343 194.002 C 575.343 140.932 532.163 97.752 479.093 97.752 C 426.023 97.752 382.843 140.932 382.843 194.002 C 382.843 204.213 384.472 214.041 387.429 223.279 L 295.292 262.259 C 289.01 251.786 281.214 242.161 271.929 233.864 C 245.96 210.669 211.066 199.641 176.117 203.544 C 121.254 209.751 76.183 253.931 68.947 308.614 C 63.783 347.594 76.857 385.579 104.814 412.824 C 107.107 415.055 109.126 417.515 110.974 420.105 C 105.986 424.883 102.845 431.566 102.845 439.003 C 102.845 451.148 111.173 461.3 122.392 464.28 C 129.927 495.186 158.033 517.753 190.345 517.753 C 222.657 517.753 250.763 495.187 258.298 464.28 C 269.517 461.3 277.845 451.147 277.845 439.003 C 277.845 431.55 274.685 424.847 269.681 420.069 C 271.474 417.565 273.443 415.194 275.657 413.042 C 283.376 405.554 289.848 397.171 295.259 388.237 L 387.431 427.237 C 384.474 436.464 382.846 446.292 382.846 456.503 C 382.846 493.812 404.233 526.163 435.346 542.132 L 435.346 636.913 L 479.096 615.038 L 522.846 636.913 L 522.846 542.132 C 553.959 526.163 575.346 493.823 575.346 456.503 C 575.346 403.433 532.166 360.253 479.096 360.253 Z M 479.093 115.253 C 522.519 115.253 557.843 150.577 557.843 194.003 C 557.843 237.429 522.519 272.753 479.093 272.753 C 435.667 272.753 400.343 237.429 400.343 194.003 C 400.343 150.577 435.667 115.253 479.093 115.253 Z M 190.343 500.253 C 167.945 500.253 148.292 485.753 140.984 465.253 L 239.703 465.253 C 232.395 485.753 212.742 500.253 190.344 500.253 Z M 251.593 447.753 L 129.093 447.753 C 124.265 447.753 120.343 443.831 120.343 439.003 C 120.343 434.175 124.265 430.253 129.093 430.253 L 251.593 430.253 C 256.421 430.253 260.343 434.175 260.343 439.003 C 260.343 443.831 256.421 447.753 251.593 447.753 Z M 190.343 342.753 C 180.691 342.753 172.843 334.905 172.843 325.253 C 172.843 315.601 180.691 307.753 190.343 307.753 C 199.995 307.753 207.843 315.601 207.843 325.253 C 207.843 334.905 199.995 342.753 190.343 342.753 Z M 263.456 400.487 C 259.632 404.206 256.441 408.468 253.569 412.956 C 252.905 412.901 252.265 412.753 251.593 412.753 L 199.093 412.753 L 199.093 359.011 C 214.152 355.101 225.343 341.519 225.343 325.253 C 225.343 305.952 209.644 290.253 190.343 290.253 C 171.042 290.253 155.343 305.952 155.343 325.253 C 155.343 341.519 166.534 355.101 181.593 359.011 L 181.593 412.753 L 129.093 412.753 C 128.401 412.753 127.745 412.901 127.062 412.956 C 124.148 408.405 120.909 404.085 117.027 400.296 C 93.07 376.941 81.859 344.347 86.289 310.898 C 92.492 264.086 131.09 226.25 178.078 220.957 C 208.512 217.465 237.676 226.75 260.266 246.926 C 267.598 253.481 273.786 261.031 278.946 269.188 L 248.188 282.2 L 255.004 298.317 L 287.09 284.747 C 292.414 297.458 295.344 311.192 295.344 325.255 C 295.344 339.439 292.543 353.157 287.215 365.829 L 255.008 352.204 L 248.192 368.321 L 278.973 381.341 C 274.59 388.193 269.469 394.661 263.457 400.489 Z M 505.346 608.597 L 479.096 595.472 L 452.846 608.597 L 452.846 549.027 C 461.202 551.398 469.987 552.754 479.096 552.754 C 488.205 552.754 496.991 551.398 505.346 549.027 Z M 479.096 535.253 C 435.67 535.253 400.346 499.929 400.346 456.503 C 400.346 413.077 435.67 377.753 479.096 377.753 C 522.522 377.753 557.846 413.077 557.846 456.503 C 557.846 499.929 522.522 535.253 479.096 535.253 Z"/>
    <path d="M 479.093 412.753 C 454.968 412.753 435.343 432.378 435.343 456.503 C 435.343 480.628 454.968 500.253 479.093 500.253 C 503.218 500.253 522.843 480.628 522.843 456.503 C 522.843 432.378 503.218 412.753 479.093 412.753 Z M 479.093 482.753 C 464.62 482.753 452.843 470.976 452.843 456.503 C 452.843 442.03 464.62 430.253 479.093 430.253 C 493.566 430.253 505.343 442.03 505.343 456.503 C 505.343 470.976 493.566 482.753 479.093 482.753 Z"/>
  </g>
</svg>