<?xml version="1.0" encoding="utf-8"?>
<svg width="700pt" height="700pt" version="1.1" viewBox="0 0 700 700" xmlns="http://www.w3.org/2000/svg">
  <defs>
    <symbol id="s" overflow="visible">
      <path d="m28.422-1.7031c-1.4688 0.76172-3 1.3359-4.5938 1.7188-1.5859 0.38281-3.2344 0.57812-4.9531 0.57812-5.1562 0-9.2422-1.4375-12.25-4.3125-3.0117-2.875-4.5156-6.7812-4.5156-11.719s1.5039-8.8438 4.5156-11.719c3.0078-2.8828 7.0938-4.3281 12.25-4.3281 1.7188 0 3.3672 0.19531 4.9531 0.57812 1.5938 0.38672 3.125 0.96094 4.5938 1.7188v6.4062c-1.4805-1.0078-2.9375-1.75-4.375-2.2188s-2.9492-0.70312-4.5312-0.70312c-2.8438 0-5.0859 0.91406-6.7188 2.7344-1.625 1.8242-2.4375 4.3359-2.4375 7.5312 0 3.1992 0.8125 5.7109 2.4375 7.5312 1.6328 1.8242 3.875 2.7344 6.7188 2.7344 1.582 0 3.0938-0.23438 4.5312-0.70312 1.4375-0.47656 2.8945-1.2188 4.375-2.2188z"/>
    </symbol>
    <symbol id="c" overflow="visible">
      <path d="m20.797-16.875c-0.64844-0.3125-1.293-0.53516-1.9375-0.67188-0.64844-0.14453-1.293-0.21875-1.9375-0.21875-1.9062 0-3.375 0.60938-4.4062 1.8281-1.0234 1.2188-1.5312 2.9688-1.5312 5.25v10.688h-7.4219v-23.203h7.4219v3.8125c0.94531-1.5195 2.0352-2.6289 3.2656-3.3281 1.2383-0.69531 2.7227-1.0469 4.4531-1.0469 0.25 0 0.51953 0.011719 0.8125 0.03125 0.28906 0.023437 0.71094 0.070313 1.2656 0.14062z"/>
    </symbol>
    <symbol id="b" overflow="visible">
      <path d="m26.719-11.656v2.1094h-17.328c0.17578 1.7422 0.80078 3.0469 1.875 3.9219 1.082 0.86719 2.5859 1.2969 4.5156 1.2969 1.5625 0 3.1602-0.22656 4.7969-0.6875 1.6328-0.46875 3.3164-1.1719 5.0469-2.1094v5.7188c-1.75 0.65625-3.5078 1.1523-5.2656 1.4844-1.75 0.34375-3.5078 0.51562-5.2656 0.51562-4.1992 0-7.4609-1.0625-9.7812-3.1875-2.3242-2.1328-3.4844-5.1289-3.4844-8.9844 0-3.7812 1.1406-6.7539 3.4219-8.9219 2.2812-2.1758 5.4258-3.2656 9.4375-3.2656 3.6445 0 6.5625 1.1016 8.75 3.2969 2.1875 2.1992 3.2812 5.1367 3.2812 8.8125zm-7.625-2.4688c0-1.4062-0.41406-2.5391-1.2344-3.4062-0.8125-0.86328-1.8867-1.2969-3.2188-1.2969-1.4375 0-2.6055 0.40625-3.5 1.2188-0.89844 0.80469-1.4531 1.9648-1.6719 3.4844z"/>
    </symbol>
    <symbol id="d" overflow="visible">
      <path d="m13.969-10.438c-1.5547 0-2.7188 0.26562-3.5 0.79688-0.78125 0.52344-1.1719 1.293-1.1719 2.3125 0 0.9375 0.3125 1.6719 0.9375 2.2031 0.63281 0.53125 1.5078 0.79688 2.625 0.79688 1.3945 0 2.5664-0.5 3.5156-1.5 0.95703-1 1.4375-2.2539 1.4375-3.7656v-0.84375zm11.328-2.7969v13.234h-7.4844v-3.4375c-0.99219 1.4062-2.1094 2.4336-3.3594 3.0781-1.2422 0.63281-2.75 0.95312-4.5312 0.95312-2.4062 0-4.3594-0.69531-5.8594-2.0938-1.4922-1.4062-2.2344-3.2227-2.2344-5.4531 0-2.7266 0.92969-4.7266 2.7969-6 1.875-1.2695 4.8125-1.9062 8.8125-1.9062h4.375v-0.57812c0-1.1641-0.46484-2.0195-1.3906-2.5625-0.92969-0.55078-2.3711-0.82812-4.3281-0.82812-1.5859 0-3.0625 0.16406-4.4375 0.48438-1.3672 0.3125-2.6328 0.78906-3.7969 1.4219v-5.6562c1.582-0.38281 3.1758-0.67578 4.7812-0.875 1.6016-0.20703 3.2031-0.3125 4.7969-0.3125 4.1875 0 7.207 0.82812 9.0625 2.4844 1.8633 1.6484 2.7969 4.3281 2.7969 8.0469z"/>
    </symbol>
    <symbol id="a" overflow="visible">
      <path d="m11.656-29.781v6.5781h7.6562v5.3125h-7.6562v9.8281c0 1.0859 0.21094 1.8203 0.64062 2.2031 0.4375 0.375 1.2891 0.5625 2.5625 0.5625h3.7969v5.2969h-6.3594c-2.9297 0-5-0.60938-6.2188-1.8281-1.2188-1.2266-1.8281-3.3047-1.8281-6.2344v-9.8281h-3.6875v-5.3125h3.6875v-6.5781z"/>
    </symbol>
    <symbol id="h" overflow="visible">
      <path d="m19.344-19.797v-12.438h7.4531v32.234h-7.4531v-3.3594c-1.0234 1.3672-2.1484 2.3672-3.375 3-1.2305 0.63281-2.6523 0.95312-4.2656 0.95312-2.8555 0-5.2031-1.1328-7.0469-3.4062-1.8359-2.2695-2.75-5.1914-2.75-8.7656 0-3.5703 0.91406-6.4922 2.75-8.7656 1.8438-2.2812 4.1914-3.4219 7.0469-3.4219 1.6016 0 3.0195 0.32422 4.25 0.96875 1.2383 0.64844 2.3672 1.6484 3.3906 3zm-4.8906 15.016c1.5938 0 2.8047-0.57812 3.6406-1.7344 0.83203-1.1641 1.25-2.8516 1.25-5.0625 0-2.207-0.41797-3.8906-1.25-5.0469-0.83594-1.1641-2.0469-1.75-3.6406-1.75-1.5742 0-2.7773 0.58594-3.6094 1.75-0.83594 1.1562-1.25 2.8398-1.25 5.0469 0 2.2109 0.41406 3.8984 1.25 5.0625 0.83203 1.1562 2.0352 1.7344 3.6094 1.7344z"/>
    </symbol>
    <symbol id="g" overflow="visible">
      <path d="m15.906-4.7812c1.5938 0 2.8047-0.57812 3.6406-1.7344 0.83203-1.1641 1.25-2.8516 1.25-5.0625 0-2.207-0.41797-3.8906-1.25-5.0469-0.83594-1.1641-2.0469-1.75-3.6406-1.75-1.5859 0-2.8047 0.58594-3.6562 1.75-0.84375 1.168-1.2656 2.8516-1.2656 5.0469 0 2.1992 0.42188 3.8828 1.2656 5.0469 0.85156 1.168 2.0703 1.75 3.6562 1.75zm-4.9219-15.016c1.0195-1.3516 2.1484-2.3516 3.3906-3 1.2383-0.64453 2.6641-0.96875 4.2812-0.96875 2.8633 0 5.2109 1.1406 7.0469 3.4219 1.832 2.2734 2.75 5.1953 2.75 8.7656 0 3.5742-0.91797 6.4961-2.75 8.7656-1.8359 2.2734-4.1836 3.4062-7.0469 3.4062-1.6172 0-3.043-0.32031-4.2812-0.95312-1.2422-0.64453-2.3711-1.6445-3.3906-3v3.3594h-7.4219v-32.234h7.4219z"/>
    </symbol>
    <symbol id="f" overflow="visible">
      <path d="m0.51562-23.203h7.4219l6.2344 15.75 5.2969-15.75h7.4219l-9.7656 25.406c-0.98047 2.5703-2.1211 4.375-3.4219 5.4062-1.3047 1.0312-3.0273 1.5469-5.1719 1.5469h-4.2812v-4.875h2.3125c1.2578 0 2.1758-0.19922 2.75-0.59375 0.57031-0.39844 1.0156-1.1172 1.3281-2.1562l0.21875-0.64062z"/>
    </symbol>
    <symbol id="e" overflow="visible">
      <path d="m0.20312-30.922h8.0156l8.2031 22.828 8.1875-22.828h8.0156l-11.453 30.922h-9.5156z"/>
    </symbol>
    <symbol id="r" overflow="visible">
      <path d="m22.312-22.469v6.0469c-1.0117-0.69531-2.0273-1.207-3.0469-1.5312-1.0117-0.33203-2.0625-0.5-3.1562-0.5-2.0625 0-3.6719 0.60547-4.8281 1.8125-1.1562 1.2109-1.7344 2.8984-1.7344 5.0625 0 2.168 0.57812 3.8555 1.7344 5.0625 1.1562 1.2109 2.7656 1.8125 4.8281 1.8125 1.1641 0 2.2695-0.17188 3.3125-0.51562 1.0391-0.34375 2.0039-0.85156 2.8906-1.5312v6.0625c-1.168 0.42969-2.3516 0.74219-3.5469 0.95312-1.1875 0.21875-2.3828 0.32812-3.5781 0.32812-4.1875 0-7.4648-1.0703-9.8281-3.2188-2.3555-2.1445-3.5312-5.1289-3.5312-8.9531 0-3.8203 1.1758-6.8047 3.5312-8.9531 2.3633-2.1562 5.6406-3.2344 9.8281-3.2344 1.207 0 2.3984 0.10938 3.5781 0.32812 1.1875 0.21875 2.3672 0.54297 3.5469 0.96875z"/>
    </symbol>
    <symbol id="q" overflow="visible">
      <path d="m14.609-18.453c-1.6484 0-2.9023 0.59375-3.7656 1.7812-0.86719 1.1797-1.2969 2.875-1.2969 5.0938s0.42969 3.9219 1.2969 5.1094c0.86328 1.1797 2.1172 1.7656 3.7656 1.7656 1.6133 0 2.8477-0.58594 3.7031-1.7656 0.85156-1.1875 1.2812-2.8906 1.2812-5.1094s-0.42969-3.9141-1.2812-5.0938c-0.85547-1.1875-2.0898-1.7812-3.7031-1.7812zm0-5.3125c3.9883 0 7.1016 1.0781 9.3438 3.2344 2.25 2.1562 3.375 5.1406 3.375 8.9531s-1.125 6.7969-3.375 8.9531c-2.2422 2.1484-5.3555 3.2188-9.3438 3.2188-4.0117 0-7.1484-1.0703-9.4062-3.2188-2.25-2.1562-3.375-5.1406-3.375-8.9531s1.125-6.7969 3.375-8.9531c2.2578-2.1562 5.3945-3.2344 9.4062-3.2344z"/>
    </symbol>
    <symbol id="p" overflow="visible">
      <path d="m21.688-22.469v5.625c-1.5859-0.65625-3.1172-1.1484-4.5938-1.4844-1.4805-0.33203-2.875-0.5-4.1875-0.5-1.4062 0-2.4531 0.17969-3.1406 0.53125-0.6875 0.35547-1.0312 0.89844-1.0312 1.625 0 0.59375 0.25781 1.0547 0.78125 1.375 0.51953 0.3125 1.4453 0.54297 2.7812 0.6875l1.3125 0.1875c3.8008 0.49219 6.3516 1.2891 7.6562 2.3906 1.3125 1.1055 1.9688 2.8398 1.9688 5.2031 0 2.4688-0.91406 4.3242-2.7344 5.5625-1.8242 1.2422-4.543 1.8594-8.1562 1.8594-1.5312 0-3.1172-0.12109-4.75-0.35938-1.6367-0.23828-3.3203-0.59766-5.0469-1.0781v-5.6406c1.4766 0.71875 2.9922 1.2617 4.5469 1.625 1.5508 0.35547 3.1289 0.53125 4.7344 0.53125 1.4453 0 2.5352-0.19531 3.2656-0.59375 0.73828-0.40625 1.1094-1.0039 1.1094-1.7969 0-0.65625-0.25781-1.1445-0.76562-1.4688-0.5-0.32031-1.5078-0.57812-3.0156-0.76562l-1.2969-0.15625c-3.3047-0.41406-5.6172-1.1797-6.9375-2.2969-1.3242-1.125-1.9844-2.8281-1.9844-5.1094 0-2.457 0.83594-4.2812 2.5156-5.4688 1.6875-1.1875 4.2695-1.7812 7.75-1.7812 1.3633 0 2.7969 0.10547 4.2969 0.3125 1.5078 0.21094 3.1484 0.53906 4.9219 0.98438z"/>
    </symbol>
    <symbol id="o" overflow="visible">
      <path d="m3.8906-30.922h10.156l7.0469 16.547 7.0781-16.547h10.125v30.922h-7.5312v-22.625l-7.125 16.688h-5.0625l-7.125-16.688v22.625h-7.5625z"/>
    </symbol>
    <symbol id="n" overflow="visible">
      <path d="m3.5625-32.234h7.4219v17.547l8.5312-8.5156h8.6094l-11.328 10.656 12.219 12.547h-8.9844l-9.0469-9.6719v9.6719h-7.4219z"/>
    </symbol>
    <symbol id="m" overflow="visible">
      <path d="m18.828-32.234v4.875h-4.0938c-1.0547 0-1.7891 0.19531-2.2031 0.57812-0.41797 0.375-0.625 1.0312-0.625 1.9688v1.6094h6.3438v5.3125h-6.3438v17.891h-7.4062v-17.891h-3.6875v-5.3125h3.6875v-1.6094c0-2.5312 0.70312-4.3984 2.1094-5.6094 1.4062-1.207 3.5859-1.8125 6.5469-1.8125z"/>
    </symbol>
    <symbol id="l" overflow="visible">
      <path d="m26.891-14.125v14.125h-7.4688v-10.766c0-2.0312-0.046875-3.4258-0.14062-4.1875-0.085938-0.75781-0.23438-1.3203-0.45312-1.6875-0.29297-0.47656-0.6875-0.85156-1.1875-1.125-0.49219-0.26953-1.0547-0.40625-1.6875-0.40625-1.5547 0-2.7734 0.60156-3.6562 1.7969-0.875 1.1992-1.3125 2.8555-1.3125 4.9688v11.406h-7.4219v-32.234h7.4219v12.438c1.1133-1.3516 2.2969-2.3516 3.5469-3 1.2578-0.64453 2.6484-0.96875 4.1719-0.96875 2.6758 0 4.707 0.82422 6.0938 2.4688 1.3945 1.6484 2.0938 4.0391 2.0938 7.1719z"/>
    </symbol>
    <symbol id="k" overflow="visible">
      <path d="m3.8906-30.922h8.9062l11.25 21.203v-21.203h7.5625v30.922h-8.9062l-11.25-21.219v21.219h-7.5625z"/>
    </symbol>
    <symbol id="j" overflow="visible">
      <path d="m3.8906-30.922h13.234c3.9375 0 6.957 0.875 9.0625 2.625 2.1016 1.7422 3.1562 4.2266 3.1562 7.4531 0 3.25-1.0547 5.75-3.1562 7.5-2.1055 1.7422-5.125 2.6094-9.0625 2.6094h-5.25v10.734h-7.9844zm7.9844 5.7812v8.625h4.4062c1.5391 0 2.7344-0.375 3.5781-1.125s1.2656-1.8164 1.2656-3.2031c0-1.375-0.42188-2.4297-1.2656-3.1719-0.84375-0.75-2.0391-1.125-3.5781-1.125z"/>
    </symbol>
    <symbol id="i" overflow="visible">
      <path d="m3.5625-23.203h7.4219v22.781c0 3.1133-0.75 5.4883-2.25 7.125-1.4922 1.6328-3.6523 2.4531-6.4844 2.4531h-3.6562v-4.875h1.2812c1.4062 0 2.3672-0.32031 2.8906-0.95312 0.53125-0.63672 0.79688-1.8867 0.79688-3.75zm0-9.0312h7.4219v6.0469h-7.4219z"/>
    </symbol>
  </defs>
  <g transform="matrix(1, 0, 0, 1, -49.344528, -58.576523)">
    <path d="M 630.865 349.438 L 540.076 349.438 C 509.529 349.438 484.076 377.438 484.076 411.376 L 484.076 563.256 C 484.076 568.346 487.471 571.741 492.561 571.741 L 523.956 571.741 L 523.956 665.925 C 523.956 680.351 535.835 691.378 550.261 691.378 L 621.534 691.378 C 635.96 691.378 647.839 679.499 647.839 665.925 L 647.835 570.894 L 678.382 570.894 C 683.471 570.894 686.866 567.499 686.866 562.409 L 686.866 410.529 C 686.866 376.588 661.413 349.439 630.866 349.439 Z M 669.896 553.918 L 646.986 553.918 L 646.986 478.402 C 646.986 473.312 643.592 469.918 638.502 469.918 C 633.412 469.918 630.017 473.312 630.017 478.402 L 630.017 665.922 C 630.017 671.012 625.775 674.407 620.685 674.407 L 593.533 674.407 L 593.533 567.497 C 593.533 562.407 590.139 559.012 585.049 559.012 C 579.959 559.012 576.565 562.407 576.565 567.497 L 576.561 674.407 L 549.409 674.407 C 544.319 674.407 540.077 670.164 540.077 665.922 L 540.077 478.402 C 540.077 473.312 536.682 469.918 531.592 469.918 C 526.502 469.918 523.108 473.312 523.108 478.402 L 523.108 553.918 L 500.198 553.918 L 500.198 410.528 C 500.198 385.923 518.014 365.559 539.229 365.559 L 630.018 365.559 C 651.229 365.559 669.049 385.922 669.049 410.528 L 669.049 553.918 Z"/>
    <path d="M 585.045 341.808 C 618.983 341.808 646.983 314.656 646.983 280.718 C 646.983 246.78 618.983 219.628 585.045 219.628 C 551.107 219.628 523.107 246.78 523.107 280.718 C 523.103 314.656 551.103 341.808 585.045 341.808 Z M 585.045 237.448 C 609.65 237.448 630.014 256.964 630.014 281.569 C 630.014 306.174 610.498 324.839 585.045 324.839 C 560.44 324.839 540.076 305.323 540.076 280.718 C 540.072 256.113 560.435 237.448 585.045 237.448 Z"/>
    <path d="M 305.045 262.898 C 300.803 261.203 295.713 262.898 294.014 266.293 C 278.741 296.84 240.561 309.566 209.166 295.141 C 204.924 293.445 199.834 295.141 198.135 299.383 C 196.44 303.625 198.135 308.715 202.377 310.414 C 241.408 329.082 289.772 312.961 309.287 273.93 C 310.983 269.688 309.287 264.594 305.045 262.899 Z"/>
    <path d="M 463.715 308.708 L 381.414 269.681 C 377.172 267.986 372.082 269.681 370.383 273.923 L 361.899 290.892 L 340.688 280.708 C 361.899 228.103 339.84 170.408 287.235 144.098 C 231.231 115.25 165.055 139.856 138.745 192.461 C 111.593 245.914 133.655 311.251 188.807 337.551 C 241.412 363.004 304.197 342.641 333.047 294.278 L 354.258 304.462 L 345.773 320.583 C 344.926 322.279 344.926 324.826 344.926 327.372 C 344.926 329.919 347.473 331.615 349.168 332.462 L 431.473 371.493 C 449.289 379.978 470.504 372.341 479.836 355.372 C 489.168 338.403 481.531 317.188 463.711 308.704 Z M 195.595 322.286 C 148.927 300.224 130.263 245.923 153.169 200.106 C 176.079 155.137 232.079 134.774 278.739 157.68 C 326.255 181.438 344.071 234.043 321.165 279.86 C 299.106 323.981 243.106 345.192 195.595 322.286 Z M 465.415 348.587 C 461.173 357.072 449.294 361.314 439.962 357.072 L 365.294 321.435 L 382.263 288.345 L 456.931 323.982 C 465.416 328.224 469.658 339.255 465.416 348.587 Z"/>
    <path d="M 445.895 399.498 C 445.895 394.408 442.501 391.014 437.411 391.014 L 135.351 391.014 C 130.261 391.014 126.866 394.408 126.866 399.498 L 126.866 682.888 C 126.866 687.978 130.261 691.373 135.351 691.373 L 437.411 691.373 C 442.501 691.373 445.895 687.978 445.895 682.888 L 445.895 399.498 Z M 428.926 453.803 L 335.594 453.803 L 335.594 407.987 L 428.926 407.987 Z M 318.626 407.983 L 318.626 489.436 L 292.321 461.436 C 290.626 459.741 288.079 458.889 286.384 458.889 C 283.837 458.889 282.141 459.737 280.446 461.436 L 254.141 489.44 L 254.141 407.987 Z M 237.173 407.983 L 237.173 453.803 L 143.837 453.803 L 143.837 407.987 Z M 143.837 674.413 L 143.837 470.773 L 237.169 470.773 L 237.169 511.5 C 237.169 514.895 239.716 518.289 242.259 519.137 C 245.653 520.832 249.048 519.985 251.591 517.442 L 286.38 480.958 L 321.169 517.442 C 323.716 519.988 327.106 520.836 330.501 519.137 C 333.895 517.442 335.591 514.895 335.591 511.5 L 335.595 470.773 L 428.927 470.773 L 428.927 674.413 Z"/>
    <path d="M 170.985 566.648 L 185.411 551.375 L 185.411 613.313 C 185.411 618.403 188.806 621.798 193.896 621.798 C 198.985 621.798 202.38 618.403 202.38 613.313 L 202.38 551.375 L 216.806 566.648 C 220.2 570.043 225.29 570.043 228.685 566.648 C 232.079 563.254 232.079 558.164 228.685 554.769 L 198.99 525.074 C 197.295 523.379 195.595 522.527 193.052 522.527 C 190.506 522.527 188.81 523.375 187.115 525.074 L 157.42 554.769 C 154.025 558.164 154.025 563.254 157.42 566.648 C 162.502 570.043 167.592 570.043 170.986 566.648 Z"/>
    <path d="M 260.925 566.648 L 275.351 551.375 L 275.351 613.313 C 275.351 618.403 278.746 621.798 283.836 621.798 C 288.925 621.798 292.32 618.403 292.32 613.313 L 292.32 551.375 L 306.746 566.648 C 310.14 570.043 315.23 570.043 318.625 566.648 C 322.019 563.254 322.019 558.164 318.625 554.769 L 288.93 525.074 C 287.235 523.379 285.535 522.527 282.992 522.527 C 280.446 522.527 278.75 523.375 277.055 525.074 L 247.36 554.769 C 243.965 558.164 243.965 563.254 247.36 566.648 C 251.59 570.043 257.532 570.043 260.926 566.648 Z"/>
    <path d="M 312.685 635.378 L 165.055 635.378 C 159.965 635.378 156.571 638.773 156.571 643.863 C 156.571 648.952 159.965 652.347 165.055 652.347 L 313.535 652.347 C 318.625 652.347 322.02 648.952 322.02 643.863 C 321.172 639.62 317.777 635.378 312.684 635.378 Z"/>
  </g>
</svg>