<svg width="33" height="33" viewBox="0 0 33 33" fill="none" xmlns="http://www.w3.org/2000/svg">
<path fill-rule="evenodd" clip-rule="evenodd" d="M16.6863 0C7.75714 0 0.51709 7.39957 0.51709 16.5339C0.51709 23.8399 5.1513 30.0302 11.5757 32.2184C12.3841 32.3695 12.6801 31.8585 12.6801 31.4194C12.6801 31.0235 12.6656 29.987 12.6584 28.605C8.16137 29.6055 7.20854 26.388 7.20854 26.388C6.47226 24.4805 5.41116 23.9694 5.41116 23.9694C3.94583 22.9401 5.51944 22.9617 5.51944 22.9617C7.14357 23.0769 7.99535 24.6676 7.99535 24.6676C9.43902 27.1942 11.7778 26.4671 12.7017 26.0425C12.8461 24.9772 13.2648 24.243 13.7267 23.8327C10.1392 23.4152 6.36399 21.9972 6.36399 15.6629C6.36399 13.8562 6.99199 12.3806 8.02422 11.2289C7.8582 10.8114 7.30238 9.1271 8.18302 6.85252C8.18302 6.85252 9.54008 6.40624 12.6296 8.54406C13.9216 8.17696 15.3004 7.99701 16.6791 7.98981C18.0506 7.99701 19.4365 8.17696 20.7286 8.54406C23.8181 6.40624 25.1679 6.85252 25.1679 6.85252C26.0485 9.1271 25.4927 10.8114 25.3267 11.2289C26.3589 12.3878 26.9869 13.8634 26.9869 15.6629C26.9869 22.0116 23.2045 23.408 19.6025 23.8183C20.18 24.3293 20.6997 25.3371 20.6997 26.8774C20.6997 29.0872 20.6781 30.8723 20.6781 31.4122C20.6781 31.8513 20.9668 32.3695 21.7897 32.204C28.2285 30.023 32.8555 23.8327 32.8555 16.5339C32.8555 7.39957 25.6154 0 16.6863 0Z" fill="#F8E9A1"/>
</svg>
