<svg width="33" height="33" viewBox="0 0 33 33" fill="none" xmlns="http://www.w3.org/2000/svg">
<path d="M16.0375 19.1375C17.6347 19.1375 18.9295 17.8464 18.9295 16.2537C18.9295 14.6611 17.6347 13.37 16.0375 13.37C14.4403 13.37 13.1455 14.6611 13.1455 16.2537C13.1455 17.8464 14.4403 19.1375 16.0375 19.1375Z" fill="#F8E9A1"/>
<path d="M19.6525 9.17554H12.4225C11.3709 9.17554 10.4507 9.50323 9.85915 10.0931C9.2676 10.6829 8.93896 11.6005 8.93896 12.6491V19.8585C8.93896 20.9071 9.2676 21.8246 9.92488 22.48C10.5822 23.0699 11.4366 23.3976 12.4883 23.3976H19.6525C20.7042 23.3976 21.6244 23.0699 22.2159 22.48C22.8732 21.8902 23.2018 20.9726 23.2018 19.924V12.7147C23.2018 11.666 22.8732 10.814 22.2816 10.1586C21.6244 9.50323 20.7699 9.17554 19.6525 9.17554ZM16.0375 20.7105C13.5399 20.7105 11.5681 18.6787 11.5681 16.2538C11.5681 13.7633 13.6056 11.7971 16.0375 11.7971C18.4695 11.7971 20.5727 13.7633 20.5727 16.2538C20.5727 18.7443 18.5352 20.7105 16.0375 20.7105ZM20.7042 12.6491C20.1126 12.6491 19.6525 12.1903 19.6525 11.6005C19.6525 11.0106 20.1126 10.5519 20.7042 10.5519C21.2957 10.5519 21.7558 11.0106 21.7558 11.6005C21.7558 12.1903 21.2957 12.6491 20.7042 12.6491Z" fill="#F8E9A1"/>
<path d="M16.169 0C7.23003 0 0 7.20935 0 16.1227C0 25.0361 7.23003 32.2455 16.169 32.2455C25.1079 32.2455 32.338 25.0361 32.338 16.1227C32.4037 7.20935 25.1079 0 16.169 0ZM24.7793 19.924C24.7793 21.4314 24.2535 22.7422 23.3333 23.6598C22.4131 24.5773 21.0985 25.0361 19.6525 25.0361H12.4882C11.0422 25.0361 9.72768 24.5773 8.80749 23.6598C7.82158 22.7422 7.36149 21.4314 7.36149 19.924V12.7147C7.36149 9.69986 9.39904 7.60259 12.4882 7.60259H19.7183C21.23 7.60259 22.4788 8.12691 23.399 9.04446C24.3192 9.96201 24.7793 11.2073 24.7793 12.7147V19.924Z" fill="#F8E9A1"/>
</svg>
