<svg width="33" height="33" viewBox="0 0 33 33" fill="none" xmlns="http://www.w3.org/2000/svg">
<path fill-rule="evenodd" clip-rule="evenodd" d="M16.8308 0C25.7548 0 33 7.22437 33 16.1227C33 25.0211 25.7548 32.2455 16.8308 32.2455C7.90681 32.2455 0.661621 25.0211 0.661621 16.1227C0.661621 7.22437 7.90681 0 16.8308 0ZM26.5143 11.2719C26.2819 10.4048 25.5971 9.72201 24.7275 9.49024C23.1511 9.06904 16.8308 9.06904 16.8308 9.06904C16.8308 9.06904 10.5105 9.06904 8.93413 9.49024C8.06472 9.72201 7.37973 10.4048 7.1473 11.2719C6.72507 12.8436 6.72507 16.1229 6.72507 16.1229C6.72507 16.1229 6.72507 19.402 7.1473 20.9735C7.37973 21.8407 8.06472 22.5237 8.93413 22.7554C10.5105 23.1764 16.8308 23.1764 16.8308 23.1764C16.8308 23.1764 23.1511 23.1764 24.7275 22.7554C25.5971 22.5237 26.2819 21.8407 26.5143 20.9735C26.9366 19.402 26.9366 16.1229 26.9366 16.1229C26.9366 16.1229 26.9366 12.8436 26.5143 11.2719ZM14.8096 19.1459V13.0998L20.0606 16.1229L14.8096 19.1459Z" fill="#F8E9A1"/>
</svg>
