<?xml version="1.0" encoding="utf-8"?>
<!-- Generator: Adobe Illustrator 26.0.1, SVG Export Plug-In . SVG Version: 6.00 Build 0)  -->
<svg version="1.1" id="Layer_1" xmlns="http://www.w3.org/2000/svg" xmlns:xlink="http://www.w3.org/1999/xlink" x="0px" y="0px"
	 viewBox="0 0 700 700" style="enable-background:new 0 0 700 700;" xml:space="preserve">
<path d="M606.4,328.6L435.6,157.8c-11.8-11.8-30.8-11.8-42,0c-11.8,11.8-11.8,30.8,0,42L514,320.2H113c-16.2,0-29.6,13.5-29.6,29.7
	s13.4,29.7,29.7,29.7h400.4L393.6,500c-11.8,11.8-11.8,30.8,0,42c5.6,5.6,13.4,9,21.3,9c7.8,0,15.1-2.8,21.3-9l171.4-171.4
	c5.6-5.6,9-13.4,9-21.3C615.4,342.1,612,334.2,606.4,328.6L606.4,328.6z"/>
</svg>
