<?xml version="1.0" encoding="utf-8"?>
<!-- Generator: Adobe Illustrator 26.0.1, SVG Export Plug-In . SVG Version: 6.00 Build 0)  -->
<svg version="1.1" id="Layer_1" xmlns="http://www.w3.org/2000/svg" xmlns:xlink="http://www.w3.org/1999/xlink" x="0px" y="0px"
	 viewBox="0 0 700 700" style="enable-background:new 0 0 700 700;" xml:space="preserve">
<path d="M92.9,371.1l171.4,171.4c11.8,11.8,30.8,11.8,42,0c11.8-11.8,11.8-30.8,0-42l-120.4-121h400.4c16.2,0,29.7-13.4,29.7-29.7
	s-13.4-29.7-29.7-29.7H185.8l120.4-120.4c11.8-11.8,11.8-30.8,0-42c-5.6-5.6-13.4-9-21.3-9c-7.8,0-15.1,2.8-21.3,9L92.9,328.5
	c-5.6,5.6-9,13.4-9,21.3S87.3,365.5,92.9,371.1L92.9,371.1z"/>
</svg>
